<svg xmlns="http://www.w3.org/2000/svg" viewBox="0 0 1651 229"><defs><style>.cls-1{fill:#1a1a1a;}.cls-2{fill:#fff;}</style></defs><title>Asset 1</title><g id="Layer_2" data-name="Layer 2"><g id="Layer_1-2" data-name="Layer 1"><path class="cls-1" d="M1650.94,141.91v-.24h-.08l-51-140.12h-26.64l-51,140.12h-14.36V1.55H1474l-31.58,62-31.58-62h-33.94V141.67h-14.36l-51-140.12H1284.9l-51,140.12h-14.35V1.55H1185V55.62h-36.71V1.55h-34.53V141.67h-62.4a44.31,44.31,0,0,0,7.33-2.37,52.79,52.79,0,0,0,16.78-11.44,42.51,42.51,0,0,0,8.29-11.45,54,54,0,0,0,4.34-13.13,87.73,87.73,0,0,0,1.58-14.8q.19-7.78.2-16.67c0-5.93-.07-11.48-.2-16.68a87.84,87.84,0,0,0-1.58-14.8,54.14,54.14,0,0,0-4.34-13.13,42.47,42.47,0,0,0-8.29-11.44,52.82,52.82,0,0,0-16.78-11.45q-9.27-3.94-22.3-3.95t-22.3,4a52.82,52.82,0,0,0-16.78,11.45,42.47,42.47,0,0,0-8.29,11.44,54.14,54.14,0,0,0-4.34,13.13,87.84,87.84,0,0,0-1.58,14.8c-.13,5.2-.19,10.75-.19,16.68s.06,11.48.19,16.67a87.73,87.73,0,0,0,1.58,14.8,54,54,0,0,0,4.34,13.13,42.51,42.51,0,0,0,8.29,11.45,52.79,52.79,0,0,0,16.78,11.44,44.31,44.31,0,0,0,7.33,2.37H977l-49.3-83.29,48-56.83H933.4L892.74,51.28V1.55H858.6V141.67H796.2a44.73,44.73,0,0,0,7.34-2.37,52.86,52.86,0,0,0,16.77-11.44,42.3,42.3,0,0,0,8.29-11.45,54,54,0,0,0,4.34-13.13,87.73,87.73,0,0,0,1.58-14.8q.19-7.78.2-16.67c0-5.93-.07-11.48-.2-16.68a87.84,87.84,0,0,0-1.58-14.8A54.14,54.14,0,0,0,828.6,27.2a42.26,42.26,0,0,0-8.29-11.44A52.89,52.89,0,0,0,803.54,4.31Q794.26.36,781.23.36t-22.3,4a52.89,52.89,0,0,0-16.77,11.45,42,42,0,0,0-8.29,11.44,53.29,53.29,0,0,0-4.34,13.13A86.82,86.82,0,0,0,728,55.13c-.14,5.2-.2,10.75-.2,16.68s.06,11.48.2,16.67a86.71,86.71,0,0,0,1.58,14.8,53.15,53.15,0,0,0,4.34,13.13,42.09,42.09,0,0,0,8.29,11.45,52.86,52.86,0,0,0,16.77,11.44,44.61,44.61,0,0,0,7.33,2.37H679.59V84.83L722,1.55H684.33L662.42,52.07,640.32,1.55h-37.7l42.43,83.28v56.84H600.26v-24.4H574.7v24.4H509.34a65.14,65.14,0,0,0,6.35-1.68q10.15-3.26,19.24-12.53A44.49,44.49,0,0,0,546,108.51q3.16-10.85,3.16-27.82V61.15H494.08V90H514.8v2a28.33,28.33,0,0,1-1.18,8,16.17,16.17,0,0,1-4.15,7,16.41,16.41,0,0,1-6.11,4,25.39,25.39,0,0,1-9.28,1.48,18.53,18.53,0,0,1-8.19-1.68,14.79,14.79,0,0,1-5.43-4.24,23,23,0,0,1-2.17-3.55,20.51,20.51,0,0,1-1.58-5.72q-.58-3.75-1-9.77t-.39-15.69q0-9.68.39-15.69c.27-4,.6-7.24,1-9.68a20.4,20.4,0,0,1,1.58-5.62,23.44,23.44,0,0,1,2.17-3.55,15.76,15.76,0,0,1,5.43-4.34,17.61,17.61,0,0,1,8.19-1.78q8.88,0,13.42,3.85t6.71,11.94H549a64.58,64.58,0,0,0-4.84-17.07A47.39,47.39,0,0,0,533.85,15,50.57,50.57,0,0,0,517.47,4.41q-9.78-4.05-23.39-4-12.84,0-22.11,4A52.89,52.89,0,0,0,455.2,15.76a42.26,42.26,0,0,0-8.29,11.44,54.14,54.14,0,0,0-4.34,13.13A87.84,87.84,0,0,0,441,55.13c-.13,5.2-.2,10.75-.2,16.68s.07,11.48.2,16.67a87.73,87.73,0,0,0,1.58,14.8,54,54,0,0,0,4.34,13.13,42.3,42.3,0,0,0,8.29,11.45A52.86,52.86,0,0,0,472,139.3a45,45,0,0,0,7.31,2.37H416.91V1.55H382.38V141.67H321.74a50.9,50.9,0,0,0,10.41-2.27,37.16,37.16,0,0,0,23-21,44,44,0,0,0,3.36-17.76,37.23,37.23,0,0,0-1.88-12.53A31.63,31.63,0,0,0,352,79.3a29.72,29.72,0,0,0-5.72-5.72c-2-1.44-3.69-2.63-5.13-3.55q1.58-1.19,4.24-3.36a28.3,28.3,0,0,0,5.13-5.62,35.36,35.36,0,0,0,4.25-8.19,30.29,30.29,0,0,0,1.77-10.66,46.17,46.17,0,0,0-2.86-16.58,33.72,33.72,0,0,0-8.59-12.83A39.79,39.79,0,0,0,331,4.51a57.48,57.48,0,0,0-19.24-3H253.5V142.07h.06v86.72H1650.94V142.07h.06ZM288,32.53h21.51q7.11,0,9.77,3.65a12.75,12.75,0,0,1,0,15.59q-2.67,3.66-9.77,3.65H288Zm32.61,178.15H317.3V189.92h-23v20.76H291V166.55h3.34v20.39h23V166.55h3.35Zm-9.32-99.6H288V86.41h23.29q7.1,0,9.86,3.85A14,14,0,0,1,324,98.65a14.46,14.46,0,0,1-2.77,8.48Q318.43,111.09,311.33,111.08Zm102.41,58.45H390.31v17.41h20v3h-20v17.79h23.43v3H387V166.55h26.78Zm88.94,41.15L498.84,200H478.26l-3.84,10.72h-3.6l16.24-44.13h3l16.24,44.13Zm73,0h-2.85l-14.5-44.13h3.53l12.4,38.24,12.39-38.24h3.54Zm84.79-18.28v18.28h-3.35V192.4l-13-25.85h3.59l11.22,22.31,11-22.31h3.6Zm129-81.81a19.29,19.29,0,0,1-16.57,0,16.54,16.54,0,0,1-5.53-4.44,23.06,23.06,0,0,1-2.17-3.56A19.85,19.85,0,0,1,763.67,97c-.4-2.43-.73-5.63-1-9.57s-.39-9.15-.39-15.59.13-11.68.39-15.69.59-7.24,1-9.68a20.05,20.05,0,0,1,1.58-5.62,23.44,23.44,0,0,1,2.17-3.55A15.53,15.53,0,0,1,773,32.93a20.17,20.17,0,0,1,16.57,0,15.62,15.62,0,0,1,5.53,4.34,23.44,23.44,0,0,1,2.17,3.55,20.4,20.4,0,0,1,1.58,5.62c.39,2.44.72,5.66,1,9.68s.39,9.24.39,15.69-.13,11.64-.39,15.59-.6,7.14-1,9.57a20.19,20.19,0,0,1-1.58,5.62,23.06,23.06,0,0,1-2.17,3.56A16.64,16.64,0,0,1,789.52,110.59Zm15.93,100.09H802.1V166.55h3.35Zm98.49,0h-3.35l-25.47-38.37v38.37h-3.35V166.55h3.35l25.47,38.24V166.55h3.35Zm-11.2-69V98.05l11.84-13.61,32.15,57.23Zm107.57,52a30.92,30.92,0,0,1-.49,4.89,22.13,22.13,0,0,1-1.3,4.46,11.08,11.08,0,0,1-2.42,3.66q-4,4-11,4H970.26V166.55h14.81q7,0,11,4a11.87,11.87,0,0,1,2.42,3.69,21.39,21.39,0,0,1,1.3,4.46,31.41,31.41,0,0,1,.49,4.9c.05,1.67.07,3.33.07,5S1000.36,191.94,1000.31,193.64Zm44.4-83a19.31,19.31,0,0,1-16.58,0,16.5,16.5,0,0,1-5.52-4.44,23.09,23.09,0,0,1-2.18-3.56,20.23,20.23,0,0,1-1.57-5.62c-.4-2.43-.73-5.63-1-9.57s-.4-9.15-.4-15.59.13-11.68.4-15.69.59-7.24,1-9.68a20.44,20.44,0,0,1,1.57-5.62,23.46,23.46,0,0,1,2.18-3.55,15.49,15.49,0,0,1,5.52-4.34,20.19,20.19,0,0,1,16.58,0,15.62,15.62,0,0,1,5.53,4.34,23.44,23.44,0,0,1,2.17,3.55,20.75,20.75,0,0,1,1.58,5.62c.39,2.44.72,5.66,1,9.68s.4,9.24.4,15.69-.13,11.64-.4,15.59-.59,7.14-1,9.57a20.54,20.54,0,0,1-1.58,5.62,23.06,23.06,0,0,1-2.17,3.56A16.64,16.64,0,0,1,1044.71,110.59Zm49.88,85.77a15.38,15.38,0,0,1-1.12,5.92,13.62,13.62,0,0,1-3.13,4.65,14.21,14.21,0,0,1-4.77,3,17.8,17.8,0,0,1-12.21,0,14.21,14.21,0,0,1-4.77-3,13.48,13.48,0,0,1-3.13-4.65,15.19,15.19,0,0,1-1.12-5.92V166.55h3.35v29.38a14.47,14.47,0,0,0,.83,5,10.73,10.73,0,0,0,2.39,3.84,10.58,10.58,0,0,0,3.72,2.45,13.87,13.87,0,0,0,9.67,0,10.43,10.43,0,0,0,6.1-6.29,14.24,14.24,0,0,0,.84-5V166.55h3.35Zm53.73-110H1185v55.26h-36.71Zm36.85,117.48a10.57,10.57,0,0,1-2.94,3.85,14.06,14.06,0,0,1-4.68,2.45,21,21,0,0,1-6.23.86,21.72,21.72,0,0,1-8.28-1.39,19.86,19.86,0,0,1-6.41-4.43l2.35-2.36a23.57,23.57,0,0,0,2.89,2.48,14.42,14.42,0,0,0,2.88,1.61,12.62,12.62,0,0,0,3.13.87,23.65,23.65,0,0,0,3.62.25q5.26,0,8.31-2.39a8.07,8.07,0,0,0,3-6.72q0-4.16-2.42-6.2a9.15,9.15,0,0,0-1.15-.87,6.5,6.5,0,0,0-1.3-.62,16.14,16.14,0,0,0-1.67-.46c-.64-.15-1.4-.28-2.27-.41l-5.14-.8a15.17,15.17,0,0,1-7.87-3.16,10.09,10.09,0,0,1-3.47-8.19,12.54,12.54,0,0,1,1-5,10.79,10.79,0,0,1,2.73-3.82,11.85,11.85,0,0,1,4.3-2.41,18.18,18.18,0,0,1,5.71-.84,18.77,18.77,0,0,1,7,1.15A20.16,20.16,0,0,1,1184,171l-2.17,2.17a18.42,18.42,0,0,0-2-1.67,13.09,13.09,0,0,0-2.33-1.3,12.21,12.21,0,0,0-2.85-.84,19.78,19.78,0,0,0-3.5-.28q-4.83,0-7.53,2.42a8.51,8.51,0,0,0-2.7,6.69c0,2.65.75,4.59,2.23,5.83a9.67,9.67,0,0,0,2.82,1.61,19.21,19.21,0,0,0,3.51.93l5.14.8c1,.17,1.92.34,2.67.5a15.07,15.07,0,0,1,2,.59,8.42,8.42,0,0,1,1.67.84,14.36,14.36,0,0,1,1.52,1.11,10.82,10.82,0,0,1,2.79,3.66,11.24,11.24,0,0,1,1,4.83A12.12,12.12,0,0,1,1185.17,203.89ZM1299.11,54.83,1311,92.33h-24.47Zm-25.65,114.7h-13.2v41.15h-3.35V169.53h-13.14v-3h29.69ZM1270,141.67l6.77-20.52H1320l6.39,20.52Zm90.82,69-10.54-20.33h-12.14v20.33h-3.35V166.55h16.8a15.62,15.62,0,0,1,5,.78,11.47,11.47,0,0,1,4,2.26,10.14,10.14,0,0,1,2.67,3.72,12.71,12.71,0,0,1,1,5.08,11.53,11.53,0,0,1-2.76,8.06,12.6,12.6,0,0,1-7.41,3.84l10.67,20.39Zm70.72,0h-3.35V166.55h3.35Zm41.8-69h-62V74.77l19.94,34.73h22.1l19.93-34.73Zm114.08-86.84,11.84,37.5h-24.47Zm-62.79,114.7h-23.43v17.41h20v3h-20v17.79h23.43v3h-26.77V166.55h26.77Zm87.86,34.36a10.49,10.49,0,0,1-3,3.85,13.91,13.91,0,0,1-4.67,2.45,21,21,0,0,1-6.23.86,21.72,21.72,0,0,1-8.28-1.39,19.86,19.86,0,0,1-6.41-4.43l2.35-2.36a22.81,22.81,0,0,0,2.88,2.48,14.49,14.49,0,0,0,2.89,1.61,12.62,12.62,0,0,0,3.13.87,23.65,23.65,0,0,0,3.62.25q5.26,0,8.31-2.39a8.07,8.07,0,0,0,3-6.72q0-4.16-2.42-6.2a9.15,9.15,0,0,0-1.15-.87,6.5,6.5,0,0,0-1.3-.62,16.14,16.14,0,0,0-1.67-.46c-.64-.15-1.4-.28-2.27-.41l-5.14-.8a15.17,15.17,0,0,1-7.87-3.16,10.09,10.09,0,0,1-3.47-8.19,12.54,12.54,0,0,1,1-5,10.79,10.79,0,0,1,2.73-3.82,11.85,11.85,0,0,1,4.3-2.41,18.16,18.16,0,0,1,5.7-.84,18.79,18.79,0,0,1,7,1.15,20.16,20.16,0,0,1,5.73,3.62l-2.17,2.17a18.42,18.42,0,0,0-2-1.67,13.09,13.09,0,0,0-2.33-1.3,12.35,12.35,0,0,0-2.85-.84,19.78,19.78,0,0,0-3.5-.28c-3.22,0-5.74.81-7.53,2.42a8.51,8.51,0,0,0-2.7,6.69c0,2.65.75,4.59,2.23,5.83a9.67,9.67,0,0,0,2.82,1.61,19.21,19.21,0,0,0,3.51.93l5.14.8c1,.17,1.92.34,2.66.5a14.8,14.8,0,0,1,2,.59,8.42,8.42,0,0,1,1.67.84,15.47,15.47,0,0,1,1.52,1.11,10.82,10.82,0,0,1,2.79,3.66,11.24,11.24,0,0,1,1,4.83A12.12,12.12,0,0,1,1612.52,203.89Zm-54.15-62.22,6.78-20.52h43.22l6.39,20.52Z"/><polygon class="cls-1" points="479.31 196.98 497.78 196.98 488.55 171.01 479.31 196.98"/><path class="cls-1" d="M1360.91,178.45q0-4.59-2.72-6.75a10.91,10.91,0,0,0-7-2.17h-13v17.85h13a11,11,0,0,0,7-2.17Q1360.91,183,1360.91,178.45Z"/><path class="cls-1" d="M996.6,179.91a20.58,20.58,0,0,0-1-3.88,8.9,8.9,0,0,0-1.89-3.09,9.83,9.83,0,0,0-4.37-2.7,18.09,18.09,0,0,0-5.12-.71H973.6v38.18h10.66a18.1,18.1,0,0,0,5.12-.72,9.89,9.89,0,0,0,4.37-2.69,9,9,0,0,0,1.89-3.1,20.58,20.58,0,0,0,1-3.88A37,37,0,0,0,997,193c0-1.49.06-3,.06-4.4s0-2.92-.06-4.4A37,37,0,0,0,996.6,179.91Z"/><rect class="cls-1" width="229" height="229"/><polygon class="cls-2" points="91.06 155.33 57 135.67 22.94 155.33 22.94 194.67 57 214.33 91.06 194.67 91.06 155.33"/><polygon class="cls-2" points="127.06 93.33 93 73.67 58.94 93.33 58.94 132.67 93 152.33 127.06 132.67 127.06 93.33"/><path class="cls-2" d="M128,139.13l31.06,17.94v35.86L128,210.87,96.94,192.93V157.07L128,139.13m0-3.46L93.94,155.33v39.34L128,214.33l34.06-19.66V155.33L128,135.67Z"/><path class="cls-2" d="M130,17.13l31.06,17.94V70.93L130,88.87,98.94,70.93V35.07L130,17.13m0-3.46L95.94,33.33V72.67L130,92.33l34.06-19.66V33.33L130,13.67Z"/><polygon class="cls-2" points="199.06 94.33 165 74.67 130.94 94.33 130.94 133.67 165 153.33 199.06 133.67 199.06 94.33"/></g></g></svg>