<?xml version="1.0" standalone="no"?>
<!DOCTYPE svg PUBLIC "-//W3C//DTD SVG 20010904//EN"
 "http://www.w3.org/TR/2001/REC-SVG-20010904/DTD/svg10.dtd">
<svg version="1.0" xmlns="http://www.w3.org/2000/svg"
 width="700.000000pt" height="700.000000pt" viewBox="0 0 700.000000 700.000000"
 preserveAspectRatio="xMidYMid meet">
<metadata>
Created by potrace 1.11, written by Peter Selinger 2001-2013
</metadata>
<g transform="translate(0.000000,700.000000) scale(0.100000,-0.100000)"
fill="#000000" stroke="none">
<path d="M3197 6672 c-14 -16 -17 -54 -17 -304 -1 -256 -3 -287 -18 -301 -14
-12 -66 -15 -301 -16 -156 -1 -291 -6 -300 -11 -14 -8 -16 -98 -17 -936 l-1
-927 -23 -19 c-19 -15 -42 -18 -154 -19 -72 0 -484 -1 -915 -2 l-783 -3 -19
-23 c-18 -22 -19 -57 -19 -937 0 -907 0 -914 20 -932 19 -15 49 -17 296 -18
248 0 278 1 298 17 l22 18 3 603 c2 581 2 604 21 619 17 14 55 16 304 15 260
-1 286 -3 298 -19 11 -14 13 -260 13 -1258 0 -1212 -1 -1241 -20 -1255 -15
-11 -69 -14 -254 -15 -130 0 -256 -1 -281 -1 -82 0 -80 8 -80 -318 0 -265 1
-288 18 -303 17 -15 74 -17 619 -16 561 0 602 1 617 18 14 15 16 84 18 620 2
574 3 603 21 619 18 16 88 17 934 18 848 0 917 -1 937 -17 21 -17 21 -20 23
-630 1 -338 2 -617 2 -621 1 -5 280 -8 620 -8 550 0 621 2 635 16 14 13 16 55
16 302 0 163 -4 293 -10 302 -8 13 -55 15 -302 18 -240 3 -296 6 -308 18 -13
12 -15 174 -15 1259 0 1008 2 1246 13 1257 10 10 79 13 298 14 249 1 288 -1
304 -15 19 -15 20 -39 22 -620 1 -544 3 -606 18 -621 14 -14 50 -16 304 -15
271 1 289 2 302 20 21 28 21 1842 0 1870 -13 19 -43 19 -930 22 -616 2 -923 6
-936 13 -11 6 -22 21 -25 33 -3 12 -7 435 -8 939 -2 505 -6 920 -8 923 -3 2
-138 5 -301 6 -264 1 -299 3 -312 18 -13 14 -16 63 -17 301 -2 236 -5 288 -17
303 -14 15 -41 17 -302 17 -264 0 -288 -1 -303 -18z"/>
</g>
</svg>
